<?xml version="1.0" encoding="utf-8"?>
<!-- Svg Vector Icons : http://www.onlinewebfonts.com/icon -->
<!DOCTYPE svg PUBLIC "-//W3C//DTD SVG 1.1//EN" "http://www.w3.org/Graphics/SVG/1.1/DTD/svg11.dtd">
<svg version="1.1" xmlns="http://www.w3.org/2000/svg" xmlns:xlink="http://www.w3.org/1999/xlink" x="0px" y="0px" viewBox="0 0 1000 1000" enable-background="new 0 0 1000 1000" xml:space="preserve">
<metadata> Svg Vector Icons : http://www.onlinewebfonts.com/icon </metadata>
<g><g fill="#fff" transform="translate(0.000000,511.000000) scale(0.100000,-0.100000)"><path d="M4021.9,4452.6c-116.8-23.8-168.2-172.2-89.1-257.3c37.6-39.6,69.3-53.4,168.2-67.3c53.4-7.9,65.3-95,17.8-128.7c-19.8-13.8-65.3-25.7-100.9-25.7c-104.9,0-217.7-69.3-285-172.2c-47.5-77.2-57.4-114.8-57.4-211.8c0-213.8,122.7-350.3,352.3-395.8c106.9-19.8,112.8-25.7,112.8-81.2c0-51.5-9.9-61.4-77.2-79.2c-132.6-37.6-186-148.4-118.8-243.4c49.5-69.3,110.8-85.1,225.6-55.4c106.9,27.7,217.7,116.8,269.2,213.7c35.6,69.3,35.6,259.3,0,328.5c-59.4,114.8-221.7,221.7-336.5,221.7c-71.3,0-138.5,63.3-122.7,114.8c7.9,23.8,27.7,43.5,41.6,43.5c102.9,0,239.5,51.5,312.7,116.8c97,87.1,132.6,168.2,132.6,300.8C4467.2,4302.2,4235.7,4498.2,4021.9,4452.6z"/><path d="M5850.7,4452.6c-73.2-7.9-124.7-71.3-124.7-152.4c0-87.1,51.5-142.5,154.4-162.3c65.3-13.8,83.1-25.7,87.1-65.3c9.9-61.3-41.6-99-132.6-99c-176.1,0-340.4-186-340.4-385.9c0-205.8,128.6-350.3,356.3-395.8c104.9-19.8,110.8-25.7,110.8-79.2c0-51.5-9.9-61.4-87.1-89.1c-223.6-77.2-128.6-350.3,102.9-298.8c190,43.5,310.7,194,310.7,387.9c0,197.9-132.6,356.3-320.6,380c-124.7,15.8-158.3,39.6-150.4,100.9c5.9,45.5,17.8,55.4,116.8,73.2c227.6,45.5,356.3,190,356.3,395.8C6290,4300.3,6086.2,4480.4,5850.7,4452.6z"/><path d="M4813.6,4409.1c-47.5-53.4-47.5-164.3-2-215.7c19.8-21.8,73.2-47.5,118.7-55.4c65.3-13.8,83.1-25.7,87.1-65.3c9.9-61.3-41.5-99-132.6-99c-97,0-229.6-85.1-289-186c-37.6-63.3-49.5-112.8-49.5-199.9c0-211.8,122.7-348.3,352.3-393.8c106.9-19.8,112.8-25.7,112.8-81.2c0-51.5-9.9-61.4-87.1-89.1c-223.6-77.2-128.6-350.3,102.9-298.8c336.5,77.2,429.5,512.6,150.4,706.6c-41.6,27.7-112.8,55.4-160.3,61.4c-124.7,15.8-158.3,39.6-150.4,100.9c5.9,45.5,17.8,55.4,116.8,73.2c229.6,47.5,354.3,186,354.3,395.8c0,225.6-158.3,385.9-380,385.9C4873,4448.7,4841.3,4438.8,4813.6,4409.1z"/><path d="M3932.9,2212.3c-33.7-33.7-39.6-65.3-39.6-237.5v-197.9h-934.2c-1048.9,0-1106.3-5.9-1341.9-130.6c-334.5-174.2-532.4-536.4-566-1027.2c-11.9-172.2-11.9-182.1,37.6-237.5l49.5-59.4h3863.3h3863.3l47.5,55.4c43.5,51.5,47.5,73.2,47.5,247.4c-2,629.4-166.3,946-564.1,1096.5c-116.8,43.5-134.6,43.5-1201.3,51.5l-1084.6,5.9v184.1c0,156.3-5.9,192-41.6,237.5l-39.6,51.5H4999.6C3998.2,2251.8,3970.5,2249.9,3932.9,2212.3z M5793.3,1749.1c0-152.4,5.9-194,37.6-231.6l37.6-47.5l1195.4-9.9c1165.7-9.9,1195.4-9.9,1284.5-51.5c176.2-81.2,247.4-235.5,269.2-575.9l11.9-203.8H5015.5H1399.6v45.5c2,116.8,61.4,358.2,110.8,449.3c67.3,124.7,158.3,207.8,304.8,275.1l108.9,51.5l1104.4,9.9l1106.3,9.9l37.6,47.5c31.7,37.6,37.6,79.2,37.6,231.6v186h791.7h791.7V1749.1z"/><path d="M534.7,78.7c-188-67.3-285-152.4-384-340.4c-67.3-126.7-67.3-383.9-2-516.6c73.2-146.5,172.2-247.4,312.7-316.7c160.3-79.2,340.4-87.1,486.9-21.8l93,39.6l5.9-1050.9l5.9-1052.9l53.4-150.4c180.1-506.7,577.9-829.3,1100.4-888.6c233.5-25.7,5355.6-25.7,5589.1,0c520.5,59.4,922.3,384,1100.4,888.6l53.4,150.4l5.9,1052.9l5.9,1050.9l93-39.6c63.3-29.7,130.6-41.6,227.6-39.6c243.4,0,455.2,140.5,572,378C9890.1-705,9900-653.6,9900-519c0,144.5-7.9,182.1-55.4,271.1C9775.3-115.2,9678.3-18.3,9547.7,49c-85.1,43.5-128.7,53.4-261.3,53.4c-184.1,2-292.9-37.6-419.6-154.4l-79.2-71.3H5001.6H1215.5l-79.2,71.3C972.1,96.6,732.6,150,534.7,78.7z M904.8-265.7c184.1-126.7,180.1-378-7.9-518.5c-77.2-57.4-263.2-57.4-340.4,0c-188,140.5-192,391.9-7.9,518.5c49.5,31.7,93,43.5,178.1,43.5C811.8-222.1,855.3-234,904.8-265.7z M9442.8-259.7c93-61.4,130.6-136.6,130.6-261.3c0-197.9-132.6-324.6-322.6-308.8C8957.9-804,8857-431.9,9098.4-265.7C9183.5-208.3,9359.7-204.3,9442.8-259.7z M8643.2-1736.2c0-868.8-7.9-1328-21.8-1399.3c-83.1-397.8-427.5-716.5-829.3-767.9c-199.9-25.7-5337.8-25.7-5561.4,0c-407.7,45.5-752.1,346.4-839.2,732.3c-27.7,116.8-31.7,330.5-31.7,1432.9v1298.3h3641.6h3641.6V-1736.2z"/></g></g>
</svg>