<?xml version="1.0" encoding="utf-8"?>
<!-- Svg Vector Icons : http://www.onlinewebfonts.com/icon -->
<!DOCTYPE svg PUBLIC "-//W3C//DTD SVG 1.1//EN" "http://www.w3.org/Graphics/SVG/1.1/DTD/svg11.dtd">
<svg version="1.1" xmlns="http://www.w3.org/2000/svg" xmlns:xlink="http://www.w3.org/1999/xlink" x="0px" y="0px" viewBox="0 0 1000 1000" enable-background="new 0 0 1000 1000" xml:space="preserve">
<metadata> Svg Vector Icons : http://www.onlinewebfonts.com/icon </metadata>
<g><path fill="#fff" d="M125.5,89.3h196.7v77.7H125.5V89.3z M510.3,387.6C371,387.6,258,500.6,258,640c0,139.4,113,252.4,252.4,252.4c139.4,0,252.4-113,252.4-252.4C762.7,500.6,649.7,387.6,510.3,387.6z M510.3,866.5c-125.1,0-226.5-101.4-226.5-226.5c0-125.1,101.4-226.5,226.5-226.5c125.1,0,226.5,101.4,226.5,226.5C736.9,765.1,635.4,866.5,510.3,866.5z M498.5,280.9c-158.4,0-310.1,28.5-450.3,80.5v586.3c0,23.3,18.9,42.3,42.3,42.3h819.1c23.3,0,42.3-18.9,42.3-42.3V362.5C810.7,309.8,658,280.9,498.5,280.9z M920.7,918.4c0,21.7-17.6,39.4-39.4,39.4H118.7c-21.7,0-39.4-17.6-39.4-39.4V389.6c130.6-48.5,271.8-74.9,419.2-74.9c148.5,0,290.7,26.9,422.1,76L920.7,918.4L920.7,918.4z M909.5,10H90.5c-23.3,0-42.3,18.9-42.3,42.3V327c140.7-52.4,292.9-81.1,451.8-81.1c158.9,0,311.1,28.7,451.8,81.1V52.3C951.8,28.9,932.9,10,909.5,10z M914.2,279.9c-129-48-268.5-74.3-414.2-74.3c-145.7,0-285.2,26.3-414.2,74.3V87.6c0-21.4,17.4-38.8,38.8-38.8h750.9c21.4,0,38.8,17.4,38.8,38.8V279.9z M638,88c-22.2,0-40.1,18-40.1,40.1c0,22.2,18,40.1,40.1,40.1c22.2,0,40.1-18,40.1-40.1C678.2,105.9,660.2,88,638,88z M638,147.5c-10.7,0-19.4-8.7-19.4-19.4c0-10.7,8.7-19.4,19.4-19.4c10.7,0,19.4,8.7,19.4,19.4C657.5,138.8,648.8,147.5,638,147.5z M731.5,88c-22.2,0-40.1,18-40.1,40.1c0,22.2,18,40.1,40.1,40.1c22.2,0,40.1-18,40.1-40.1C771.6,105.9,753.6,88,731.5,88z M731.5,147.5c-10.7,0-19.4-8.7-19.4-19.4c0-10.7,8.7-19.4,19.4-19.4s19.4,8.7,19.4,19.4C750.9,138.8,742.2,147.5,731.5,147.5z M825.9,88c-22.2,0-40.1,18-40.1,40.1c0,22.2,18,40.1,40.1,40.1c22.2,0,40.1-18,40.1-40.1C866.1,105.9,848.1,88,825.9,88z M825.9,147.5c-10.7,0-19.4-8.7-19.4-19.4c0-10.7,8.7-19.4,19.4-19.4c10.7,0,19.4,8.7,19.4,19.4C845.4,138.8,836.7,147.5,825.9,147.5z M691.3,644.6c-66.4,44.8-124.3,21.9-181.2-10.4c-57-32.3-134.2-50.6-181.2,10.4c0,100.1,81.1,181.2,181.2,181.2C635.8,825.8,700.8,710.5,691.3,644.6z M508.1,791.6c-78.7,0-142.5-56-142.5-134.7c44.8-38.7,97.7-11.5,142.5,13.9c44.8,25.4,84.4,44.3,139.9,19.8C630.1,737.3,596.8,791.6,508.1,791.6z"/></g>
</svg>